<svg width="800" height="572" viewBox="0 0 800 572" fill="none" xmlns="http://www.w3.org/2000/svg">
<g clip-path="url(#clip0_424_6)">
<path d="M400.001 571.551C382.521 571.551 366.491 563.525 356.023 549.526L10.9923 88.2675C-1.53902 71.5128 -3.50621 49.4846 5.86412 30.7768C15.2345 12.0689 34.0486 0.448608 54.972 0.448608H144.26C156.2 0.448608 165.879 10.1283 165.879 22.0674C165.879 34.0065 156.199 43.6862 144.26 43.6862H54.972C48.4595 43.6862 45.497 48.1987 44.5251 50.1378C43.5548 52.0768 41.7173 57.1534 45.6173 62.3675L390.646 523.626C393.695 527.701 397.815 528.311 400.001 528.311C402.187 528.311 406.307 527.701 409.357 523.626L754.386 62.3675C758.286 57.1534 756.448 52.0784 755.478 50.1378C754.508 48.1987 751.544 43.6862 745.031 43.6862H311.241C299.301 43.6862 289.622 34.0065 289.622 22.0674C289.622 10.1283 299.302 0.448608 311.241 0.448608H745.028C765.952 0.448608 784.767 12.0689 794.136 30.7768C803.505 49.4846 801.539 71.5128 789.008 88.2675L443.981 549.528C433.51 563.523 417.479 571.551 400.001 571.551Z" fill="#044013"/>
<path d="M187.866 121.924H612.136L400.001 405.521L187.866 121.924Z" fill="#D1C179"/>
<path d="M400.001 427.14C393.187 427.14 386.77 423.928 382.688 418.471L170.554 134.872C165.652 128.319 164.872 119.56 168.535 112.241C172.199 104.925 179.682 100.304 187.865 100.304H612.134C620.319 100.304 627.801 104.925 631.464 112.241C635.128 119.56 634.345 128.319 629.445 134.872L417.309 418.471C413.232 423.928 406.815 427.14 400.001 427.14ZM231.036 143.544L400.001 369.429L568.965 143.543L231.036 143.544Z" fill="#044013"/>
</g>
<defs>
<clipPath id="clip0_424_6">
<rect width="800" height="572" fill="white"/>
</clipPath>
</defs>
</svg>
