<svg width="46" height="46" viewBox="0 0 46 46" fill="none" xmlns="http://www.w3.org/2000/svg">
<path d="M22.8332 3.30634L22.8304 23.5L28.7294 32.9046L34.9778 42.8662L22.8304 23.5L10.6872 42.8706L17.5019 32L22.8304 23.5L22.8317 13.9971L22.8332 3.30634ZM22.8318 0.500001C21.5728 0.500001 20.4262 1.2324 19.8909 2.37959L14.8015 13.2859L3.08966 15.0828C1.88687 15.2684 0.887815 16.1169 0.5 17.2757C0.112185 18.4388 0.40586 19.718 1.25456 20.591L9.83431 29.4379L7.84324 41.7046C7.6423 42.9402 8.1608 44.1802 9.17671 44.9039C9.73454 45.2999 10.3907 45.5 11.0483 45.5C11.5893 45.5 12.1303 45.3651 12.6207 45.0925L22.8304 39.4189L33.0401 45.0925C33.5305 45.3637 34.0729 45.5 34.6111 45.5C35.2687 45.5 35.9235 45.2999 36.4841 44.9039C37.4986 44.1817 38.0171 42.9417 37.8148 41.7046L35.8237 29.4379L44.4091 20.591C45.2592 19.7194 45.55 18.4373 45.1622 17.2757C44.7744 16.114 43.7739 15.267 42.5725 15.0828L30.8636 13.2859L25.7714 2.37959C25.2402 1.2324 24.0922 0.501452 22.8304 0.501452L22.8318 0.500001Z" fill="#D1C179"/>
</svg>
