<svg width="45" height="45" viewBox="0 0 45 45" fill="none" xmlns="http://www.w3.org/2000/svg">
<path d="M22.5018 2.80634L28.5383 15.7271L42.2651 17.8329L32.3238 28.0677L32.6582 30.1213L34.6464 42.3662L22.5004 35.6238L10.3558 42.3706L12.3441 30.1242L12.6771 28.0706L2.73856 17.8329L16.464 15.7271L17.3661 13.7996L22.5018 2.80634ZM22.5004 0C21.2414 0 20.0948 0.732403 19.5595 1.87959L14.4701 12.7859L2.75823 14.5828C1.55543 14.7684 0.556376 15.6169 0.168558 16.7757C-0.219261 17.9388 0.0744133 19.218 0.923117 20.091L9.50289 28.9379L7.51181 41.2046C7.31088 42.4402 7.82937 43.6802 8.84529 44.4039C9.40313 44.7999 10.0593 45 10.7169 45C11.2579 45 11.7989 44.8651 12.2893 44.5925L22.499 38.9189L32.7088 44.5925C33.1992 44.8637 33.7415 45 34.2797 45C34.9373 45 35.5921 44.7999 36.1528 44.4039C37.1673 43.6817 37.6858 42.4417 37.4834 41.2046L35.4923 28.9379L44.0777 20.091C44.9278 19.2194 45.2187 17.9373 44.8309 16.7757C44.4431 15.614 43.4426 14.767 42.2412 14.5828L30.5322 12.7859L25.44 1.87959C24.9088 0.732403 23.7608 0.00145028 22.499 0.00145028L22.5004 0Z" fill="#D9D9D9"/>
</svg>
