<svg width="307" height="46" viewBox="0 0 307 46" fill="none" xmlns="http://www.w3.org/2000/svg">
<path d="M27.8332 3.30634L27.8304 23.5L33.7294 32.9046L39.9778 42.8662L27.8304 23.5L15.6872 42.8706L22.5019 32L27.8304 23.5L27.8317 13.9971L27.8332 3.30634ZM27.8318 0.500001C26.5728 0.500001 25.4262 1.2324 24.8909 2.37959L19.8015 13.2859L8.08966 15.0828C6.88687 15.2684 5.88782 16.1169 5.5 17.2757C5.11218 18.4388 5.40586 19.718 6.25456 20.591L14.8343 29.4379L12.8432 41.7046C12.6423 42.9402 13.1608 44.1802 14.1767 44.9039C14.7345 45.2999 15.3907 45.5 16.0483 45.5C16.5893 45.5 17.1303 45.3651 17.6207 45.0925L27.8304 39.4189L38.0401 45.0925C38.5305 45.3637 39.0729 45.5 39.6111 45.5C40.2687 45.5 40.9235 45.2999 41.4841 44.9039C42.4986 44.1817 43.0171 42.9417 42.8148 41.7046L40.8237 29.4379L49.4091 20.591C50.2592 19.7194 50.55 18.4373 50.1622 17.2757C49.7744 16.114 48.7739 15.267 47.5725 15.0828L35.8636 13.2859L30.7714 2.37959C30.2402 1.2324 29.0922 0.501452 27.8304 0.501452L27.8318 0.500001Z" fill="#D1C179"/>
<path d="M92.0949 3.80634L92.0921 24L97.9911 33.4046L104.24 43.3662L92.0921 24L79.9489 43.3706L86.7636 32.5L92.0921 24L92.0934 14.4971L92.0949 3.80634ZM92.0935 1C90.8345 1 89.6879 1.7324 89.1526 2.87959L84.0632 13.7859L72.3514 15.5828C71.1486 15.7684 70.1495 16.6169 69.7617 17.7757C69.3739 18.9388 69.6676 20.218 70.5163 21.091L79.096 29.9379L77.105 42.2046C76.904 43.4402 77.4225 44.6802 78.4384 45.4039C78.9963 45.7999 79.6525 46 80.3101 46C80.851 46 81.392 45.8651 81.8824 45.5925L92.0921 39.9189L102.302 45.5925C102.792 45.8637 103.335 46 103.873 46C104.53 46 105.185 45.7999 105.746 45.4039C106.76 44.6817 107.279 43.4417 107.076 42.2046L105.085 29.9379L113.671 21.091C114.521 20.2194 114.812 18.9373 114.424 17.7757C114.036 16.614 113.036 15.767 111.834 15.5828L100.125 13.7859L95.0331 2.87959C94.5019 1.7324 93.3539 1.00145 92.0921 1.00145L92.0935 1Z" fill="#D1C179"/>
<path d="M156.095 3.80634L156.092 24L161.991 33.4046L168.24 43.3662L156.092 24L143.949 43.3706L150.764 32.5L156.092 24L156.093 14.4971L156.095 3.80634ZM156.094 1C154.835 1 153.688 1.7324 153.153 2.87959L148.063 13.7859L136.351 15.5828C135.149 15.7684 134.15 16.6169 133.762 17.7757C133.374 18.9388 133.668 20.218 134.516 21.091L143.096 29.9379L141.105 42.2046C140.904 43.4402 141.423 44.6802 142.438 45.4039C142.996 45.7999 143.652 46 144.31 46C144.851 46 145.392 45.8651 145.882 45.5925L156.092 39.9189L166.302 45.5925C166.792 45.8637 167.335 46 167.873 46C168.53 46 169.185 45.7999 169.746 45.4039C170.76 44.6817 171.279 43.4417 171.076 42.2046L169.085 29.9379L177.671 21.091C178.521 20.2194 178.812 18.9373 178.424 17.7757C178.036 16.614 177.036 15.767 175.834 15.5828L164.125 13.7859L159.033 2.87959C158.502 1.7324 157.354 1.00145 156.092 1.00145L156.094 1Z" fill="#D1C179"/>
<path d="M220.095 2.80634L220.092 23L225.991 32.4046L232.24 42.3662L220.092 23L207.949 42.3706L214.764 31.5L220.092 23L220.093 13.4971L220.095 2.80634ZM220.094 1.39861e-06C218.835 1.39861e-06 217.688 0.732404 217.153 1.87959L212.063 12.7859L200.351 14.5828C199.149 14.7684 198.15 15.6169 197.762 16.7757C197.374 17.9388 197.668 19.218 198.516 20.091L207.096 28.9379L205.105 41.2046C204.904 42.4402 205.423 43.6802 206.438 44.4039C206.996 44.7999 207.652 45 208.31 45C208.851 45 209.392 44.8651 209.882 44.5925L220.092 38.9189L230.302 44.5925C230.792 44.8637 231.335 45 231.873 45C232.53 45 233.185 44.7999 233.746 44.4039C234.76 43.6817 235.279 42.4417 235.076 41.2046L233.085 28.9379L241.671 20.091C242.521 19.2194 242.812 17.9373 242.424 16.7757C242.036 15.614 241.036 14.767 239.834 14.5828L228.125 12.7859L223.033 1.87959C222.502 0.732404 221.354 0.00145168 220.092 0.00145168L220.094 1.39861e-06Z" fill="#D1C179"/>
<path d="M284.095 3.80634L284.092 24L289.991 33.4046L296.24 43.3662L284.092 24L271.949 43.3706L278.764 32.5L284.092 24L284.093 14.4971L284.095 3.80634ZM284.094 1C282.835 1 281.688 1.7324 281.153 2.87959L276.063 13.7859L264.351 15.5828C263.149 15.7684 262.15 16.6169 261.762 17.7757C261.374 18.9388 261.668 20.218 262.516 21.091L271.096 29.9379L269.105 42.2046C268.904 43.4402 269.423 44.6802 270.438 45.4039C270.996 45.7999 271.652 46 272.31 46C272.851 46 273.392 45.8651 273.882 45.5925L284.092 39.9189L294.302 45.5925C294.792 45.8637 295.335 46 295.873 46C296.53 46 297.185 45.7999 297.746 45.4039C298.76 44.6817 299.279 43.4417 299.076 42.2046L297.085 29.9379L305.671 21.091C306.521 20.2194 306.812 18.9373 306.424 17.7757C306.036 16.614 305.036 15.767 303.834 15.5828L292.125 13.7859L287.033 2.87959C286.502 1.7324 285.354 1.00145 284.092 1.00145L284.094 1Z" fill="#D1C179"/>
</svg>
