<svg width="322" height="45" viewBox="0 0 322 45" fill="none" xmlns="http://www.w3.org/2000/svg">
<path d="M92.5018 2.80634L98.5383 15.7271L112.265 17.8329L102.324 28.0677L102.658 30.1213L104.646 42.3662L92.5004 35.6238L80.3558 42.3706L82.3441 30.1242L82.6771 28.0706L72.7386 17.8329L86.464 15.7271L87.3661 13.7996L92.5018 2.80634ZM92.5004 0C91.2414 0 90.0948 0.732403 89.5595 1.87959L84.4701 12.7859L72.7582 14.5828C71.5554 14.7684 70.5564 15.6169 70.1686 16.7757C69.7807 17.9388 70.0744 19.218 70.9231 20.091L79.5029 28.9379L77.5118 41.2046C77.3109 42.4402 77.8294 43.6802 78.8453 44.4039C79.4031 44.7999 80.0593 45 80.7169 45C81.2579 45 81.7989 44.8651 82.2893 44.5925L92.499 38.9189L102.709 44.5925C103.199 44.8637 103.742 45 104.28 45C104.937 45 105.592 44.7999 106.153 44.4039C107.167 43.6817 107.686 42.4417 107.483 41.2046L105.492 28.9379L114.078 20.091C114.928 19.2194 115.219 17.9373 114.831 16.7757C114.443 15.614 113.443 14.767 112.241 14.5828L100.532 12.7859L95.44 1.87959C94.9088 0.732403 93.7608 0.00145028 92.499 0.00145028L92.5004 0Z" fill="#D9D9D9"/>
<path d="M22.5018 2.80634L28.5383 15.7271L42.2651 17.8329L32.3238 28.0677L32.6582 30.1213L34.6464 42.3662L22.5004 35.6238L10.3558 42.3706L12.3441 30.1242L12.6771 28.0706L2.73856 17.8329L16.464 15.7271L17.3661 13.7996L22.5018 2.80634ZM22.5004 0C21.2414 0 20.0948 0.732403 19.5595 1.87959L14.4701 12.7859L2.75823 14.5828C1.55543 14.7684 0.556376 15.6169 0.168558 16.7757C-0.219261 17.9388 0.0744133 19.218 0.923117 20.091L9.50289 28.9379L7.51181 41.2046C7.31088 42.4402 7.82937 43.6802 8.84529 44.4039C9.40313 44.7999 10.0593 45 10.7169 45C11.2579 45 11.7989 44.8651 12.2893 44.5925L22.499 38.9189L32.7088 44.5925C33.1992 44.8637 33.7415 45 34.2797 45C34.9373 45 35.5921 44.7999 36.1528 44.4039C37.1673 43.6817 37.6858 42.4417 37.4834 41.2046L35.4923 28.9379L44.0777 20.091C44.9278 19.2194 45.2187 17.9373 44.8309 16.7757C44.4431 15.614 43.4426 14.767 42.2412 14.5828L30.5322 12.7859L25.44 1.87959C24.9088 0.732403 23.7608 0.00145028 22.499 0.00145028L22.5004 0Z" fill="#D9D9D9"/>
<path d="M161.502 2.80634L167.538 15.7271L181.265 17.8329L171.324 28.0677L171.658 30.1213L173.646 42.3662L161.5 35.6238L149.356 42.3706L151.344 30.1242L151.677 28.0706L141.739 17.8329L155.464 15.7271L156.366 13.7996L161.502 2.80634ZM161.5 0C160.241 0 159.095 0.732403 158.559 1.87959L153.47 12.7859L141.758 14.5828C140.555 14.7684 139.556 15.6169 139.169 16.7757C138.781 17.9388 139.074 19.218 139.923 20.091L148.503 28.9379L146.512 41.2046C146.311 42.4402 146.829 43.6802 147.845 44.4039C148.403 44.7999 149.059 45 149.717 45C150.258 45 150.799 44.8651 151.289 44.5925L161.499 38.9189L171.709 44.5925C172.199 44.8637 172.742 45 173.28 45C173.937 45 174.592 44.7999 175.153 44.4039C176.167 43.6817 176.686 42.4417 176.483 41.2046L174.492 28.9379L183.078 20.091C183.928 19.2194 184.219 17.9373 183.831 16.7757C183.443 15.614 182.443 14.767 181.241 14.5828L169.532 12.7859L164.44 1.87959C163.909 0.732403 162.761 0.00145028 161.499 0.00145028L161.5 0Z" fill="#D9D9D9"/>
<path d="M230.502 2.80634L236.538 15.7271L250.265 17.8329L240.324 28.0677L240.658 30.1213L242.646 42.3662L230.5 35.6238L218.356 42.3706L220.344 30.1242L220.677 28.0706L210.739 17.8329L224.464 15.7271L225.366 13.7996L230.502 2.80634ZM230.5 0C229.241 0 228.095 0.732403 227.559 1.87959L222.47 12.7859L210.758 14.5828C209.555 14.7684 208.556 15.6169 208.169 16.7757C207.781 17.9388 208.074 19.218 208.923 20.091L217.503 28.9379L215.512 41.2046C215.311 42.4402 215.829 43.6802 216.845 44.4039C217.403 44.7999 218.059 45 218.717 45C219.258 45 219.799 44.8651 220.289 44.5925L230.499 38.9189L240.709 44.5925C241.199 44.8637 241.742 45 242.28 45C242.937 45 243.592 44.7999 244.153 44.4039C245.167 43.6817 245.686 42.4417 245.483 41.2046L243.492 28.9379L252.078 20.091C252.928 19.2194 253.219 17.9373 252.831 16.7757C252.443 15.614 251.443 14.767 250.241 14.5828L238.532 12.7859L233.44 1.87959C232.909 0.732403 231.761 0.00145028 230.499 0.00145028L230.5 0Z" fill="#D9D9D9"/>
<path d="M299.502 2.80634L305.538 15.7271L319.265 17.8329L309.324 28.0677L309.658 30.1213L311.646 42.3662L299.5 35.6238L287.356 42.3706L289.344 30.1242L289.677 28.0706L279.739 17.8329L293.464 15.7271L294.366 13.7996L299.502 2.80634ZM299.5 0C298.241 0 297.095 0.732403 296.559 1.87959L291.47 12.7859L279.758 14.5828C278.555 14.7684 277.556 15.6169 277.169 16.7757C276.781 17.9388 277.074 19.218 277.923 20.091L286.503 28.9379L284.512 41.2046C284.311 42.4402 284.829 43.6802 285.845 44.4039C286.403 44.7999 287.059 45 287.717 45C288.258 45 288.799 44.8651 289.289 44.5925L299.499 38.9189L309.709 44.5925C310.199 44.8637 310.742 45 311.28 45C311.937 45 312.592 44.7999 313.153 44.4039C314.167 43.6817 314.686 42.4417 314.483 41.2046L312.492 28.9379L321.078 20.091C321.928 19.2194 322.219 17.9373 321.831 16.7757C321.443 15.614 320.443 14.767 319.241 14.5828L307.532 12.7859L302.44 1.87959C301.909 0.732403 300.761 0.00145028 299.499 0.00145028L299.5 0Z" fill="#D9D9D9"/>
</svg>
