<svg width="319" height="48" viewBox="0 0 319 48" fill="none" xmlns="http://www.w3.org/2000/svg">
<path d="M27.8332 3.30634L27.8304 23.5L33.7294 32.9046L39.9778 42.8662L27.8304 23.5L15.6872 42.8706L22.5019 32L27.8304 23.5L27.8317 13.9971L27.8332 3.30634ZM27.8318 0.500001C26.5728 0.500001 25.4262 1.2324 24.8909 2.37959L19.8015 13.2859L8.08966 15.0828C6.88687 15.2684 5.88782 16.1169 5.5 17.2757C5.11218 18.4388 5.40586 19.718 6.25456 20.591L14.8343 29.4379L12.8432 41.7046C12.6423 42.9402 13.1608 44.1802 14.1767 44.9039C14.7345 45.2999 15.3907 45.5 16.0483 45.5C16.5893 45.5 17.1303 45.3651 17.6207 45.0925L27.8304 39.4189L38.0401 45.0925C38.5305 45.3637 39.0729 45.5 39.6111 45.5C40.2687 45.5 40.9235 45.2999 41.4841 44.9039C42.4986 44.1817 43.0171 42.9417 42.8148 41.7046L40.8237 29.4379L49.4091 20.591C50.2592 19.7194 50.55 18.4373 50.1622 17.2757C49.7744 16.114 48.7739 15.267 47.5725 15.0828L35.8636 13.2859L30.7714 2.37959C30.2402 1.2324 29.0922 0.501452 27.8304 0.501452L27.8318 0.500001Z" fill="#D1C179"/>
<path d="M89.5018 5.80634L95.5383 18.7271L109.265 20.8329L99.3238 31.0677L99.6582 33.1213L101.646 45.3662L89.5004 38.6238L77.3558 45.3706L79.3441 33.1242L79.6771 31.0706L69.7386 20.8329L83.464 18.7271L84.3661 16.7996L89.5018 5.80634ZM89.5004 3C88.2414 3 87.0948 3.7324 86.5595 4.87959L81.4701 15.7859L69.7582 17.5828C68.5554 17.7684 67.5564 18.6169 67.1686 19.7757C66.7807 20.9388 67.0744 22.218 67.9231 23.091L76.5029 31.9379L74.5118 44.2046C74.3109 45.4402 74.8294 46.6802 75.8453 47.4039C76.4031 47.7999 77.0593 48 77.7169 48C78.2579 48 78.7989 47.8651 79.2893 47.5925L89.499 41.9189L99.7088 47.5925C100.199 47.8637 100.742 48 101.28 48C101.937 48 102.592 47.7999 103.153 47.4039C104.167 46.6817 104.686 45.4417 104.483 44.2046L102.492 31.9379L111.078 23.091C111.928 22.2194 112.219 20.9373 111.831 19.7757C111.443 18.614 110.443 17.767 109.241 17.5828L97.5322 15.7859L92.44 4.87959C91.9088 3.7324 90.7608 3.00145 89.499 3.00145L89.5004 3Z" fill="#D9D9D9"/>
<path d="M158.502 5.80634L164.538 18.7271L178.265 20.8329L168.324 31.0677L168.658 33.1213L170.646 45.3662L158.5 38.6238L146.356 45.3706L148.344 33.1242L148.677 31.0706L138.739 20.8329L152.464 18.7271L153.366 16.7996L158.502 5.80634ZM158.5 3C157.241 3 156.095 3.7324 155.559 4.87959L150.47 15.7859L138.758 17.5828C137.555 17.7684 136.556 18.6169 136.169 19.7757C135.781 20.9388 136.074 22.218 136.923 23.091L145.503 31.9379L143.512 44.2046C143.311 45.4402 143.829 46.6802 144.845 47.4039C145.403 47.7999 146.059 48 146.717 48C147.258 48 147.799 47.8651 148.289 47.5925L158.499 41.9189L168.709 47.5925C169.199 47.8637 169.742 48 170.28 48C170.937 48 171.592 47.7999 172.153 47.4039C173.167 46.6817 173.686 45.4417 173.483 44.2046L171.492 31.9379L180.078 23.091C180.928 22.2194 181.219 20.9373 180.831 19.7757C180.443 18.614 179.443 17.767 178.241 17.5828L166.532 15.7859L161.44 4.87959C160.909 3.7324 159.761 3.00145 158.499 3.00145L158.5 3Z" fill="#D9D9D9"/>
<path d="M227.502 5.80634L233.538 18.7271L247.265 20.8329L237.324 31.0677L237.658 33.1213L239.646 45.3662L227.5 38.6238L215.356 45.3706L217.344 33.1242L217.677 31.0706L207.739 20.8329L221.464 18.7271L222.366 16.7996L227.502 5.80634ZM227.5 3C226.241 3 225.095 3.7324 224.559 4.87959L219.47 15.7859L207.758 17.5828C206.555 17.7684 205.556 18.6169 205.169 19.7757C204.781 20.9388 205.074 22.218 205.923 23.091L214.503 31.9379L212.512 44.2046C212.311 45.4402 212.829 46.6802 213.845 47.4039C214.403 47.7999 215.059 48 215.717 48C216.258 48 216.799 47.8651 217.289 47.5925L227.499 41.9189L237.709 47.5925C238.199 47.8637 238.742 48 239.28 48C239.937 48 240.592 47.7999 241.153 47.4039C242.167 46.6817 242.686 45.4417 242.483 44.2046L240.492 31.9379L249.078 23.091C249.928 22.2194 250.219 20.9373 249.831 19.7757C249.443 18.614 248.443 17.767 247.241 17.5828L235.532 15.7859L230.44 4.87959C229.909 3.7324 228.761 3.00145 227.499 3.00145L227.5 3Z" fill="#D9D9D9"/>
<path d="M296.502 5.80634L302.538 18.7271L316.265 20.8329L306.324 31.0677L306.658 33.1213L308.646 45.3662L296.5 38.6238L284.356 45.3706L286.344 33.1242L286.677 31.0706L276.739 20.8329L290.464 18.7271L291.366 16.7996L296.502 5.80634ZM296.5 3C295.241 3 294.095 3.7324 293.559 4.87959L288.47 15.7859L276.758 17.5828C275.555 17.7684 274.556 18.6169 274.169 19.7757C273.781 20.9388 274.074 22.218 274.923 23.091L283.503 31.9379L281.512 44.2046C281.311 45.4402 281.829 46.6802 282.845 47.4039C283.403 47.7999 284.059 48 284.717 48C285.258 48 285.799 47.8651 286.289 47.5925L296.499 41.9189L306.709 47.5925C307.199 47.8637 307.742 48 308.28 48C308.937 48 309.592 47.7999 310.153 47.4039C311.167 46.6817 311.686 45.4417 311.483 44.2046L309.492 31.9379L318.078 23.091C318.928 22.2194 319.219 20.9373 318.831 19.7757C318.443 18.614 317.443 17.767 316.241 17.5828L304.532 15.7859L299.44 4.87959C298.909 3.7324 297.761 3.00145 296.499 3.00145L296.5 3Z" fill="#D9D9D9"/>
</svg>
