<svg width="574" height="277" viewBox="0 0 574 277" fill="none" xmlns="http://www.w3.org/2000/svg">
<g clip-path="url(#clip0_369_2)">
<path d="M228.8 165.7V40.7002H255.614V92.2749H310.048V40.7002H336.8V165.7H310.048V114.064H255.614V165.7H228.8Z" fill="#D1C179"/>
<path d="M310 49.9263H280.055C279.508 46.1288 278.392 42.7557 276.705 39.807C275.019 36.8137 272.854 34.2671 270.211 32.1673C267.567 30.0675 264.513 28.4591 261.049 27.3422C257.631 26.2253 253.916 25.6668 249.906 25.6668C242.659 25.6668 236.346 27.4316 230.968 30.961C225.59 34.4458 221.419 39.539 218.457 46.2405C215.494 52.8973 214.013 60.9838 214.013 70.5C214.013 80.2842 215.494 88.5048 218.457 95.1616C221.465 101.818 225.658 106.845 231.036 110.24C236.415 113.635 242.636 115.333 249.7 115.333C253.666 115.333 257.335 114.819 260.708 113.792C264.126 112.764 267.157 111.268 269.8 109.302C272.444 107.291 274.632 104.856 276.364 101.997C278.141 99.1378 279.372 95.8764 280.055 92.2129L310 92.347C309.225 98.6464 307.288 104.722 304.189 110.575C301.135 116.383 297.01 121.588 291.814 126.19C286.664 130.747 280.511 134.365 273.355 137.046C266.245 139.682 258.201 141 249.222 141C236.734 141 225.567 138.23 215.722 132.69C205.923 127.15 198.175 119.131 192.477 108.632C186.826 98.1326 184 85.4221 184 70.5C184 55.5333 186.871 42.8004 192.614 32.3013C198.357 21.8023 206.151 13.8051 215.996 8.30989C225.84 2.76996 236.916 0 249.222 0C257.335 0 264.855 1.11692 271.783 3.35076C278.756 5.5846 284.932 8.84601 290.31 13.135C295.689 17.3793 300.064 22.5841 303.437 28.7495C306.855 34.9149 309.043 41.9739 310 49.9263Z" fill="#044013"/>
<path d="M68.5344 173.074C72.4883 173.074 76.1127 173.289 79.4077 173.72C82.7026 174.042 85.5582 174.58 87.9745 175.333C90.3907 176.086 92.2579 177.001 93.5758 178.077C95.0036 179.045 95.7175 180.175 95.7175 181.466C95.7175 182.326 95.4979 183.51 95.0586 185.016C94.6192 186.414 94.0701 187.921 93.4111 189.534C92.8619 191.041 92.203 192.547 91.4341 194.053C90.6653 195.559 89.9514 196.743 89.2924 197.603C88.963 197.818 88.5236 197.818 87.9745 197.603C87.5351 197.28 87.4253 196.85 87.645 196.312C89.9514 192.332 90.4457 189.265 89.1277 187.114C87.6999 184.855 84.6795 182.703 80.0667 180.659C75.4538 178.615 69.7426 177.593 62.9331 177.593C54.3662 177.593 46.8428 178.884 40.3628 181.466C33.9926 184.048 28.6658 187.705 24.3824 192.439C20.099 197.173 16.859 202.929 14.6624 209.706C12.5756 216.484 11.5322 224.069 11.5322 232.46C11.5322 238.485 12.356 244.079 14.0034 249.243C15.6509 254.3 18.0672 258.711 21.2523 262.476C24.4374 266.134 28.3363 269.039 32.9492 271.19C37.5621 273.235 42.834 274.257 48.7649 274.257C56.6727 274.257 63.2625 271.89 68.5344 267.156C73.8063 262.315 77.5405 255.914 79.7372 247.952C79.9568 247.414 80.3412 247.199 80.8904 247.307C81.4395 247.414 81.7141 247.737 81.7141 248.275C81.2748 250.534 80.6158 253.063 79.7372 255.86C78.9683 258.549 78.0897 261.131 77.1012 263.606C76.1127 265.973 75.1243 268.071 74.1358 269.899C73.1473 271.621 72.3236 272.589 71.6646 272.804C68.15 274.095 64.1961 275.117 59.8029 275.87C55.5195 276.623 50.9615 277 46.1289 277C30.7526 277 19.2204 273.504 11.5322 266.511C3.84408 259.518 0 249.835 0 237.463C0 228.318 1.64746 219.819 4.94239 211.966C8.34714 204.004 13.0699 197.173 19.1106 191.471C25.2611 185.769 32.5099 181.304 40.8571 178.077C49.2042 174.742 58.43 173.074 68.5344 173.074Z" fill="#044013"/>
<path d="M87.6696 275.548C92.612 257.043 98.2683 240.368 104.638 225.521C111.118 210.675 117.928 198.034 125.067 187.598C132.206 177.162 139.4 169.147 146.649 163.553C154.007 157.851 160.981 155 167.571 155C170.317 155 172.459 155.646 173.996 156.937C175.644 158.12 176.742 159.626 177.291 161.455C177.95 163.176 178.06 165.059 177.621 167.103C177.182 169.147 176.358 170.976 175.15 172.59C174.82 172.913 174.491 173.02 174.161 172.913C173.832 172.805 173.667 172.536 173.667 172.106C174.216 169.954 173.612 167.91 171.855 165.974C170.097 164.037 167.297 163.069 163.453 163.069C157.522 163.069 151.866 164.629 146.484 167.749C141.212 170.869 136.05 176.086 130.998 183.402C125.945 190.61 121.003 200.239 116.171 212.288C111.338 224.23 106.396 239.131 101.343 256.989C102.991 254.085 104.858 251.341 106.945 248.759C109.141 246.177 111.503 243.918 114.029 241.981C116.555 240.045 119.246 238.539 122.101 237.463C124.957 236.28 127.922 235.688 130.998 235.688C132.316 235.688 133.249 236.011 133.798 236.656C134.457 237.302 134.787 238.055 134.787 238.915C134.787 240.314 134.293 241.874 133.304 243.595C130.998 247.576 129.131 251.664 127.703 255.86C126.275 260.056 125.561 263.875 125.561 267.317C125.561 268.824 125.726 270.061 126.055 271.029C126.385 271.997 126.989 272.481 127.868 272.481C128.966 272.481 130.174 271.944 131.492 270.868C132.81 269.684 133.908 268.393 134.787 266.995C135.116 266.78 135.446 266.833 135.775 267.156C136.105 267.371 136.215 267.64 136.105 267.963C134.677 270.33 132.645 272.428 130.009 274.257C127.483 276.086 125.177 277 123.09 277C121.223 277 119.685 276.516 118.477 275.548C117.269 274.472 116.665 272.697 116.665 270.222C116.665 268.286 116.83 266.242 117.159 264.09C117.598 261.831 118.093 259.625 118.642 257.474C119.301 255.322 120.015 253.224 120.783 251.18C121.662 249.028 122.596 247.092 123.584 245.37C124.133 244.079 124.408 243.165 124.408 242.627C124.408 241.659 123.859 241.175 122.76 241.175C120.674 241.175 118.422 241.981 116.006 243.595C113.59 245.101 111.228 247.307 108.922 250.212C106.615 253.009 104.364 256.398 102.167 260.378C100.08 264.359 98.2683 268.77 96.7307 273.611C96.511 274.364 95.6324 275.117 94.0947 275.87C92.5571 276.623 90.8547 277 88.9876 277C87.8893 277 87.45 276.516 87.6696 275.548Z" fill="#044013"/>
<path d="M159.535 240.368C159.535 241.981 159.37 243.81 159.041 245.854C158.711 247.899 158.272 249.996 157.723 252.148C159.919 246.984 162.335 242.95 164.971 240.045C167.607 237.14 170.463 235.688 173.538 235.688C175.186 235.688 176.449 236.064 177.327 236.817C178.206 237.571 178.645 238.539 178.645 239.722C178.645 240.798 178.206 242.197 177.327 243.918C176.559 245.639 175.9 246.823 175.35 247.468C175.131 247.576 174.911 247.576 174.691 247.468C174.472 247.253 174.362 247.038 174.362 246.823C174.362 246.07 174.032 245.424 173.373 244.886C172.824 244.348 171.946 244.079 170.738 244.079C166.893 244.079 163.379 246.661 160.194 251.825C157.119 256.882 154.263 264.198 151.627 273.772C151.517 274.31 151.133 274.795 150.474 275.225C149.815 275.548 149.046 275.87 148.167 276.193C147.398 276.408 146.575 276.623 145.696 276.839C144.817 276.946 144.049 277 143.39 277C142.182 277 141.852 276.354 142.401 275.063C143.39 272.804 144.323 270.384 145.202 267.802C146.19 265.112 147.069 262.422 147.838 259.733C148.607 257.043 149.266 254.461 149.815 251.987C150.364 249.405 150.803 247.038 151.133 244.886C151.352 243.272 151.407 242.035 151.298 241.175C151.298 240.314 150.858 239.884 149.98 239.884C148.881 239.884 147.728 240.368 146.52 241.336C145.422 242.197 144.378 243.326 143.39 244.725C142.95 245.048 142.511 245.101 142.072 244.886C141.742 244.563 141.687 244.187 141.907 243.757C142.566 242.896 143.335 242.035 144.213 241.175C145.202 240.206 146.245 239.346 147.344 238.593C148.552 237.732 149.76 237.033 150.968 236.495C152.286 235.957 153.604 235.688 154.922 235.688C156.679 235.688 157.887 236.118 158.546 236.979C159.205 237.732 159.535 238.862 159.535 240.368Z" fill="#044013"/>
<path d="M198.236 228.749C197.907 229.071 197.522 229.071 197.083 228.749C196.753 228.426 196.479 227.996 196.259 227.458C196.039 226.812 195.93 226.167 195.93 225.521C195.93 224.768 196.094 224.123 196.424 223.585C197.632 222.078 199.389 220.196 201.696 217.937C204.112 215.57 206.583 213.579 209.109 211.966C209.329 211.858 209.603 211.966 209.933 212.288C210.262 212.504 210.372 212.719 210.262 212.934C207.956 214.978 205.759 217.452 203.673 220.357C201.586 223.154 199.774 225.951 198.236 228.749ZM180.608 246.984C180.279 247.199 180.004 247.146 179.784 246.823C179.565 246.392 179.51 246.016 179.62 245.693C183.683 242.466 189.34 239.131 196.589 235.688C197.467 235.688 197.907 236.172 197.907 237.14C196.479 239.615 195.051 242.304 193.623 245.209C192.305 248.114 191.097 251.019 189.999 253.923C189.01 256.72 188.186 259.464 187.527 262.153C186.869 264.735 186.539 266.887 186.539 268.608C186.539 270.76 187.308 271.836 188.845 271.836C190.054 271.836 191.207 271.352 192.305 270.384C193.513 269.308 194.886 267.963 196.424 266.349C196.643 266.134 196.918 266.188 197.248 266.511C197.577 266.726 197.632 267.102 197.412 267.64C194.996 270.437 192.58 272.697 190.163 274.418C187.857 276.139 185.605 277 183.409 277C179.565 277 177.643 275.225 177.643 271.675C177.643 269.738 177.917 267.479 178.466 264.897C179.125 262.207 179.949 259.518 180.938 256.828C182.036 254.031 183.189 251.341 184.397 248.759C185.715 246.07 187.033 243.757 188.351 241.82C187.143 242.466 185.77 243.272 184.233 244.241C182.805 245.209 181.597 246.123 180.608 246.984Z" fill="#044013"/>
<path d="M224.927 235.688C227.344 235.688 229.266 236.011 230.694 236.656C232.231 237.302 233 238.108 233 239.077C233 240.26 232.671 241.605 232.012 243.111C231.462 244.617 230.913 245.854 230.364 246.823C230.144 247.038 229.87 247.092 229.54 246.984C229.211 246.769 229.046 246.446 229.046 246.016C229.376 245.263 229.54 244.187 229.54 242.788C229.54 241.282 229.101 240.045 228.222 239.077C227.454 238.108 226.355 237.624 224.927 237.624C223.06 237.624 221.523 238.216 220.315 239.399C219.216 240.475 218.667 242.035 218.667 244.079C218.667 245.801 219.106 247.468 219.985 249.082C220.974 250.588 222.017 252.148 223.115 253.762C224.323 255.268 225.422 256.936 226.41 258.765C227.399 260.486 227.893 262.476 227.893 264.735C227.893 268.608 226.3 271.621 223.115 273.772C219.93 275.924 215.757 277 210.595 277C206.86 277 203.895 276.408 201.698 275.225C199.611 274.041 198.568 272.75 198.568 271.352C198.568 270.922 198.733 270.33 199.062 269.577C199.392 268.824 199.831 268.017 200.38 267.156C200.929 266.295 201.533 265.435 202.192 264.574C202.851 263.713 203.565 263.014 204.334 262.476C204.664 262.261 204.938 262.315 205.158 262.638C205.487 262.96 205.542 263.283 205.323 263.606C204.664 264.251 204.169 264.951 203.84 265.704C203.51 266.349 203.346 267.264 203.346 268.447C203.346 270.384 204.005 271.997 205.323 273.288C206.641 274.472 208.343 275.063 210.43 275.063C213.285 275.063 215.482 274.31 217.02 272.804C218.667 271.19 219.491 269.254 219.491 266.995C219.491 264.951 218.997 263.068 218.008 261.347C217.129 259.518 216.141 257.796 215.043 256.183C213.944 254.461 212.901 252.74 211.913 251.019C211.034 249.297 210.595 247.468 210.595 245.532C210.595 242.735 211.803 240.422 214.219 238.593C216.635 236.656 220.205 235.688 224.927 235.688Z" fill="#044013"/>
<path d="M416.779 167.013C421.722 167.013 424.194 169.382 424.194 174.12C424.194 175.627 423.919 177.404 423.37 179.45C422.821 181.388 422.271 182.949 421.722 184.133C421.063 184.349 420.624 184.133 420.404 183.487C421.283 181.011 420.953 178.911 419.416 177.188C417.988 175.358 414.967 174.443 410.354 174.443C405.521 174.443 401.127 175.573 397.173 177.834C393.328 180.096 389.648 183.756 386.133 188.817C382.618 193.878 379.213 200.499 375.918 208.682C372.623 216.865 369.273 226.879 365.868 238.723C367.405 239.153 368.833 239.584 370.151 240.015C371.469 240.338 372.788 240.661 374.106 240.984C374.325 241.199 374.161 241.522 373.611 241.953C373.172 242.384 372.513 242.814 371.634 243.245C370.756 243.676 369.712 244.052 368.504 244.376C367.295 244.699 366.142 244.806 365.044 244.699C364.934 244.699 364.659 244.591 364.22 244.376C363.89 245.56 363.561 246.69 363.231 247.767C363.012 248.736 362.737 249.813 362.408 250.997C359.002 263.595 359.716 269.894 364.549 269.894C368.833 269.894 372.952 266.879 376.907 260.849C377.236 260.526 377.566 260.472 377.895 260.688C378.225 260.903 378.335 261.28 378.225 261.818C377.017 263.649 375.643 265.479 374.106 267.31C372.678 269.032 371.14 270.647 369.492 272.155C367.845 273.555 366.142 274.739 364.385 275.708C362.627 276.569 360.98 277 359.442 277C355.378 277 352.522 275.385 350.874 272.155C349.226 268.925 349.336 263.703 351.204 256.489C351.863 253.904 352.522 251.428 353.181 249.059C353.84 246.583 354.609 244.16 355.487 241.791C349.007 239.961 341.977 238.346 334.398 236.946C326.929 235.546 319.295 234.524 311.496 233.878C305.345 249.167 297.765 260.203 288.758 266.987C279.751 273.662 269.921 277 259.266 277C252.346 277 247.238 275.6 243.943 272.801C240.648 269.894 239 266.341 239 262.141C239 258.05 240.263 254.066 242.79 250.19C245.426 246.314 249.27 242.922 254.323 240.015C259.376 237 265.692 234.577 273.271 232.747C280.85 230.917 289.582 230.001 299.468 230.001H303.752C304.191 228.494 304.631 226.987 305.07 225.479C305.509 223.972 306.004 222.357 306.553 220.634C308.31 214.281 310.123 208.952 311.99 204.645C313.857 200.23 315.725 196.569 317.592 193.662C319.459 190.755 321.382 188.44 323.359 186.717C325.336 184.995 327.368 183.595 329.455 182.518C326.599 181.549 323.194 180.688 319.24 179.934C315.285 179.073 311.056 178.642 306.553 178.642C301.39 178.642 297.052 179.342 293.537 180.742C290.131 182.141 287.44 184.079 285.463 186.556C283.486 188.925 282.223 191.778 281.674 195.116C281.234 198.346 281.399 201.791 282.168 205.452C282.058 205.991 281.838 206.314 281.509 206.421C281.179 206.529 280.85 206.367 280.52 205.937C279.532 201.415 279.532 197.162 280.52 193.178C281.509 189.086 283.376 185.533 286.122 182.518C288.978 179.503 292.713 177.135 297.326 175.412C302.049 173.689 307.651 172.828 314.132 172.828C318.745 172.828 323.194 173.366 327.478 174.443C331.762 175.412 335.606 176.596 339.011 177.996C339.451 178.642 339.396 179.234 338.846 179.773C338.407 180.311 337.364 180.903 335.716 181.549C333.519 182.41 331.652 183.595 330.114 185.102C328.576 186.61 327.148 188.655 325.83 191.24C324.512 193.824 323.194 197 321.876 200.769C320.668 204.537 319.349 209.113 317.921 214.497C317.153 217.296 316.329 220.042 315.45 222.734C314.681 225.425 313.802 228.009 312.814 230.486C320.063 231.024 327.478 231.832 335.057 232.908C342.746 233.985 350.105 235.277 357.135 236.785C360.87 225.802 365.099 216.004 369.822 207.39C374.655 198.669 379.653 191.347 384.815 185.425C389.978 179.396 395.25 174.82 400.633 171.697C406.125 168.575 411.507 167.013 416.779 167.013ZM263.879 273.124C268.712 273.124 272.996 272.478 276.731 271.186C280.465 269.786 283.816 267.579 286.781 264.564C289.857 261.441 292.658 257.35 295.184 252.289C297.711 247.121 300.237 240.769 302.763 233.231C301.225 233.124 299.688 233.07 298.15 233.07C296.612 233.07 295.074 233.07 293.537 233.07C285.298 233.07 278.214 233.77 272.282 235.17C266.461 236.462 261.682 238.292 257.948 240.661C254.323 242.922 251.632 245.614 249.874 248.736C248.117 251.859 247.238 255.25 247.238 258.911C247.238 263.541 248.666 267.094 251.522 269.571C254.488 271.939 258.607 273.124 263.879 273.124Z" fill="#D1C179"/>
<path d="M409.249 235.654C413.094 235.654 415.949 236.785 417.817 239.046C419.684 241.307 420.618 243.945 420.618 246.96C420.618 251.159 419.739 255.089 417.982 258.75C416.334 262.303 414.247 265.479 411.721 268.279C409.304 270.97 406.668 273.124 403.812 274.739C400.956 276.246 398.375 277 396.068 277C392.333 277 389.478 275.923 387.5 273.77C385.633 271.509 384.699 268.655 384.699 265.21C384.699 262.087 385.358 258.803 386.677 255.358C388.105 251.913 389.917 248.736 392.114 245.829C394.42 242.922 397.057 240.499 400.022 238.561C402.988 236.623 406.064 235.654 409.249 235.654ZM400.187 271.993C403.592 271.993 406.448 270.271 408.755 266.825C411.171 263.272 412.38 258.427 412.38 252.289C412.38 249.059 411.721 246.367 410.402 244.214C409.084 242.061 407.162 240.984 404.636 240.984C401.121 240.984 398.265 242.653 396.068 245.991C393.871 249.328 392.773 254.227 392.773 260.688C392.773 264.456 393.432 267.31 394.75 269.248C396.178 271.078 397.99 271.993 400.187 271.993Z" fill="#D1C179"/>
<path d="M458.812 236.462C459.361 236.677 459.581 237 459.471 237.431C459.361 237.754 458.867 238.023 457.988 238.238C456.34 238.238 454.418 238.292 452.221 238.4C450.134 238.507 447.883 238.669 445.466 238.884C443.269 244.16 441.457 249.328 440.029 254.389C438.601 259.342 437.887 263.38 437.887 266.502C437.887 270.163 439.315 271.993 442.171 271.993C445.027 271.993 448.212 269.571 451.727 264.725C452.057 264.51 452.331 264.51 452.551 264.725C452.88 264.941 452.99 265.318 452.88 265.856C451.013 268.871 448.652 271.509 445.796 273.77C442.94 275.923 440.139 277 437.393 277C434.537 277 432.395 276.354 430.967 275.062C429.649 273.662 428.99 271.778 428.99 269.409C428.99 266.287 429.759 261.98 431.296 256.489C432.834 250.997 434.811 245.398 437.228 239.692C434.372 240.015 431.736 240.445 429.319 240.984C428.77 240.876 428.605 240.607 428.825 240.176C429.155 239.746 429.649 239.315 430.308 238.884C431.077 238.346 431.956 237.915 432.944 237.592C433.933 237.162 434.866 236.946 435.745 236.946C436.184 236.946 436.624 236.946 437.063 236.946C437.503 236.946 437.942 236.892 438.381 236.785C439.809 233.662 441.292 230.647 442.83 227.74C444.368 224.833 445.905 222.195 447.443 219.826C448.102 219.073 448.981 218.427 450.079 217.888C451.288 217.242 452.441 216.758 453.539 216.435C454.638 216.112 455.517 215.95 456.176 215.95C456.945 215.843 457.274 216.004 457.164 216.435C455.297 219.234 453.43 222.357 451.562 225.802C449.805 229.248 448.102 232.855 446.455 236.623C448.542 236.515 450.629 236.462 452.716 236.462C454.913 236.462 456.945 236.462 458.812 236.462Z" fill="#D1C179"/>
<path d="M492.016 243.729C492.016 249.867 483.722 254.066 467.136 256.327C467.026 257.404 466.917 258.48 466.807 259.557C466.807 260.634 466.807 261.764 466.807 262.949C466.807 265.748 467.466 267.902 468.784 269.409C470.102 270.917 472.189 271.67 475.045 271.67C477.132 271.67 479.274 271.078 481.471 269.894C483.667 268.709 485.425 267.202 486.743 265.371C487.182 265.156 487.512 265.264 487.732 265.694C487.951 266.017 488.006 266.394 487.896 266.825C485.7 269.624 482.899 272.047 479.494 274.093C476.198 276.031 472.628 277 468.784 277C464.939 277 462.138 276.085 460.381 274.254C458.733 272.316 457.91 269.624 457.91 266.179C457.91 262.841 458.624 259.396 460.051 255.843C461.479 252.182 463.292 248.844 465.489 245.829C467.795 242.814 470.377 240.392 473.233 238.561C476.198 236.623 479.164 235.654 482.13 235.654C485.095 235.654 487.457 236.515 489.215 238.238C491.082 239.853 492.016 241.684 492.016 243.729ZM477.681 239.853C475.155 239.853 472.958 241.038 471.091 243.406C469.333 245.668 468.125 249.221 467.466 254.066C472.738 253.528 476.638 252.559 479.164 251.159C481.69 249.651 482.954 247.821 482.954 245.668C482.954 244.052 482.459 242.707 481.471 241.63C480.482 240.445 479.219 239.853 477.681 239.853Z" fill="#D1C179"/>
<path d="M567.527 157C569.175 157 570.493 157.431 571.481 158.292C572.58 159.046 573.294 160.122 573.623 161.522C574.063 162.814 574.118 164.322 573.788 166.044C573.568 167.767 572.964 169.49 571.976 171.213C571.756 171.428 571.481 171.428 571.152 171.213C570.822 170.997 570.603 170.728 570.493 170.405C570.713 169.113 570.218 168.036 569.01 167.175C567.912 166.314 566.154 165.883 563.738 165.883C559.234 165.883 554.676 167.552 550.062 170.89C545.559 174.12 541.165 178.427 536.881 183.81C532.597 189.194 528.588 195.385 524.854 202.384C521.119 209.382 517.879 216.596 515.133 224.026C512.386 231.455 510.19 238.83 508.542 246.152C507.004 253.474 506.235 260.149 506.235 266.179C506.235 269.409 507.169 271.024 509.036 271.024C510.354 271.024 511.618 270.486 512.826 269.409C514.144 268.332 515.627 266.717 517.274 264.564C517.604 264.349 517.879 264.402 518.098 264.725C518.428 264.941 518.538 265.264 518.428 265.694C516.231 268.925 513.65 271.616 510.684 273.77C507.718 275.923 505.027 277 502.611 277C500.524 277 499.041 276.408 498.162 275.223C497.393 274.039 497.009 272.532 497.009 270.701C497.009 265.641 498.107 259.342 500.304 251.805C502.501 244.16 505.412 236.139 509.036 227.74C512.771 219.234 517.055 210.782 521.888 202.384C526.721 193.985 531.719 186.448 536.881 179.773C542.154 172.989 547.426 167.498 552.699 163.299C557.971 159.1 562.914 157 567.527 157Z" fill="#D1C179"/>
</g>
<defs>
<clipPath id="clip0_369_2">
<rect width="574" height="277" fill="white"/>
</clipPath>
</defs>
</svg>
