<svg width="153" height="166" viewBox="0 0 153 166" fill="none" xmlns="http://www.w3.org/2000/svg">
<g clip-path="url(#clip0_384_4)">
<path d="M44.7998 165.7V40.7002H71.614V92.2749H126.048V40.7002H152.8V165.7H126.048V114.064H71.614V165.7H44.7998Z" fill="#D1C179"/>
<path d="M126 49.9263H96.0553C95.5084 46.1288 94.3918 42.7557 92.7054 39.807C91.019 36.8137 88.854 34.2671 86.2105 32.1673C83.567 30.0675 80.5133 28.4591 77.0494 27.3422C73.631 26.2253 69.9164 25.6668 65.9056 25.6668C58.6587 25.6668 52.3462 27.4316 46.968 30.961C41.5898 34.4458 37.4194 39.539 34.4569 46.2405C31.4943 52.8973 30.013 60.9838 30.013 70.5C30.013 80.2842 31.4943 88.5048 34.4569 95.1616C37.465 101.818 41.6582 106.845 47.0364 110.24C52.4145 113.635 58.6359 115.333 65.7005 115.333C69.6658 115.333 73.3348 114.819 76.7075 113.792C80.1259 112.764 83.1568 111.268 85.8003 109.302C88.4438 107.291 90.6316 104.856 92.3635 101.997C94.1411 99.1378 95.3717 95.8764 96.0553 92.2129L126 92.347C125.225 98.6464 123.288 104.722 120.189 110.575C117.135 116.383 113.01 121.588 107.814 126.19C102.664 130.747 96.5111 134.365 89.3554 137.046C82.2453 139.682 74.2008 141 65.2219 141C52.7336 141 41.567 138.23 31.7222 132.69C21.923 127.15 14.1747 119.131 8.47748 108.632C2.82583 98.1326 0 85.4221 0 70.5C0 55.5333 2.87141 42.8004 8.61422 32.3013C14.357 21.8023 22.1508 13.8051 31.9957 8.30989C41.8405 2.76996 52.9159 0 65.2219 0C73.3348 0 80.8551 1.11692 87.783 3.35076C94.7564 5.5846 100.932 8.84601 106.31 13.135C111.689 17.3793 116.064 22.5841 119.437 28.7495C122.855 34.9149 125.043 41.9739 126 49.9263Z" fill="#044013"/>
</g>
<defs>
<clipPath id="clip0_384_4">
<rect width="153" height="166" fill="white"/>
</clipPath>
</defs>
</svg>
