<svg width="316" height="69" viewBox="0 0 316 69" fill="none" xmlns="http://www.w3.org/2000/svg">
<g clip-path="url(#clip0_420_2)">
<path d="M37.65 11.04C39.81 11.04 41.79 11.16 43.59 11.4C45.39 11.58 46.95 11.88 48.27 12.3C49.59 12.72 50.61 13.23 51.33 13.83C52.11 14.37 52.5 15 52.5 15.72C52.5 16.2 52.38 16.86 52.14 17.7C51.9 18.48 51.6 19.32 51.24 20.22C50.94 21.06 50.58 21.9 50.16 22.74C49.74 23.58 49.35 24.24 48.99 24.72C48.81 24.84 48.57 24.84 48.27 24.72C48.03 24.54 47.97 24.3 48.09 24C49.35 21.78 49.62 20.07 48.9 18.87C48.12 17.61 46.47 16.41 43.95 15.27C41.43 14.13 38.31 13.56 34.59 13.56C29.91 13.56 25.8 14.28 22.26 15.72C18.78 17.16 15.87 19.2 13.53 21.84C11.19 24.48 9.41996 27.69 8.21996 31.47C7.07996 35.25 6.50996 39.48 6.50996 44.16C6.50996 47.52 6.95996 50.64 7.85996 53.52C8.75996 56.34 10.08 58.8 11.82 60.9C13.56 62.94 15.69 64.56 18.21 65.76C20.73 66.9 23.61 67.47 26.85 67.47C31.17 67.47 34.77 66.15 37.65 63.51C40.53 60.81 42.57 57.24 43.77 52.8C43.89 52.5 44.1 52.38 44.4 52.44C44.7 52.5 44.85 52.68 44.85 52.98C44.61 54.24 44.25 55.65 43.77 57.21C43.35 58.71 42.87 60.15 42.33 61.53C41.79 62.85 41.25 64.02 40.71 65.04C40.17 66 39.72 66.54 39.36 66.66C37.44 67.38 35.28 67.95 32.88 68.37C30.54 68.79 28.05 69 25.41 69C17.01 69 10.71 67.05 6.50996 63.15C2.30996 59.25 0.209961 53.85 0.209961 46.95C0.209961 41.85 1.10996 37.11 2.90996 32.73C4.76996 28.29 7.34996 24.48 10.65 21.3C14.01 18.12 17.97 15.63 22.53 13.83C27.09 11.97 32.13 11.04 37.65 11.04Z" fill="white"/>
<path d="M48.1032 68.19C50.8032 57.87 53.8932 48.57 57.3732 40.29C60.9132 32.01 64.6332 24.96 68.5332 19.14C72.4332 13.32 76.3632 8.84996 80.3232 5.72996C84.3432 2.54996 88.1532 0.959961 91.7532 0.959961C93.2532 0.959961 94.4232 1.31996 95.2632 2.03996C96.1632 2.69996 96.7632 3.53996 97.0632 4.55996C97.4232 5.51996 97.4832 6.56996 97.2432 7.70996C97.0032 8.84996 96.5532 9.86996 95.8932 10.77C95.7132 10.95 95.5332 11.01 95.3532 10.95C95.1732 10.89 95.0832 10.74 95.0832 10.5C95.3832 9.29996 95.0532 8.15996 94.0932 7.07996C93.1332 5.99996 91.6032 5.45996 89.5032 5.45996C86.2632 5.45996 83.1732 6.32996 80.2332 8.06996C77.3532 9.80996 74.5332 12.72 71.7732 16.8C69.0132 20.82 66.3132 26.19 63.6732 32.91C61.0332 39.57 58.3332 47.88 55.5732 57.84C56.4732 56.22 57.4932 54.69 58.6332 53.25C59.8332 51.81 61.1232 50.55 62.5032 49.47C63.8832 48.39 65.3532 47.55 66.9132 46.95C68.4732 46.29 70.0932 45.96 71.7732 45.96C72.4932 45.96 73.0032 46.14 73.3032 46.5C73.6632 46.86 73.8432 47.28 73.8432 47.76C73.8432 48.54 73.5732 49.41 73.0332 50.37C71.7732 52.59 70.7532 54.87 69.9732 57.21C69.1932 59.55 68.8032 61.68 68.8032 63.6C68.8032 64.44 68.8932 65.13 69.0732 65.67C69.2532 66.21 69.5832 66.48 70.0632 66.48C70.6632 66.48 71.3232 66.18 72.0432 65.58C72.7632 64.92 73.3632 64.2 73.8432 63.42C74.0232 63.3 74.2032 63.33 74.3832 63.51C74.5632 63.63 74.6232 63.78 74.5632 63.96C73.7832 65.28 72.6732 66.45 71.2332 67.47C69.8532 68.49 68.5932 69 67.4532 69C66.4332 69 65.5932 68.73 64.9332 68.19C64.2732 67.59 63.9432 66.6 63.9432 65.22C63.9432 64.14 64.0332 63 64.2132 61.8C64.4532 60.54 64.7232 59.31 65.0232 58.11C65.3832 56.91 65.7732 55.74 66.1932 54.6C66.6732 53.4 67.1832 52.32 67.7232 51.36C68.0232 50.64 68.1732 50.13 68.1732 49.83C68.1732 49.29 67.8732 49.02 67.2732 49.02C66.1332 49.02 64.9032 49.47 63.5832 50.37C62.2632 51.21 60.9732 52.44 59.7132 54.06C58.4532 55.62 57.2232 57.51 56.0232 59.73C54.8832 61.95 53.8932 64.41 53.0532 67.11C52.9332 67.53 52.4532 67.95 51.6132 68.37C50.7732 68.79 49.8432 69 48.8232 69C48.2232 69 47.9832 68.73 48.1032 68.19Z" fill="white"/>
<path d="M87.3631 48.57C87.3631 49.47 87.2731 50.49 87.0931 51.63C86.9131 52.77 86.6731 53.94 86.3731 55.14C87.5731 52.26 88.8931 50.01 90.3331 48.39C91.7731 46.77 93.3331 45.96 95.0131 45.96C95.9131 45.96 96.6031 46.17 97.0831 46.59C97.5631 47.01 97.8031 47.55 97.8031 48.21C97.8031 48.81 97.5631 49.59 97.0831 50.55C96.6631 51.51 96.3031 52.17 96.0031 52.53C95.8831 52.59 95.7631 52.59 95.6431 52.53C95.5231 52.41 95.4631 52.29 95.4631 52.17C95.4631 51.75 95.2831 51.39 94.9231 51.09C94.6231 50.79 94.1431 50.64 93.4831 50.64C91.3831 50.64 89.4631 52.08 87.7231 54.96C86.0431 57.78 84.4831 61.86 83.0431 67.2C82.9831 67.5 82.7731 67.77 82.4131 68.01C82.0531 68.19 81.6331 68.37 81.1531 68.55C80.7331 68.67 80.2831 68.79 79.8031 68.91C79.3231 68.97 78.9031 69 78.5431 69C77.8831 69 77.7031 68.64 78.0031 67.92C78.5431 66.66 79.0531 65.31 79.5331 63.87C80.0731 62.37 80.5531 60.87 80.9731 59.37C81.3931 57.87 81.7531 56.43 82.0531 55.05C82.3531 53.61 82.5931 52.29 82.7731 51.09C82.8931 50.19 82.9231 49.5 82.8631 49.02C82.8631 48.54 82.6231 48.3 82.1431 48.3C81.5431 48.3 80.9131 48.57 80.2531 49.11C79.6531 49.59 79.0831 50.22 78.5431 51C78.3031 51.18 78.0631 51.21 77.8231 51.09C77.6431 50.91 77.6131 50.7 77.7331 50.46C78.0931 49.98 78.5131 49.5 78.9931 49.02C79.5331 48.48 80.1031 48 80.7031 47.58C81.3631 47.1 82.0231 46.71 82.6831 46.41C83.4031 46.11 84.1231 45.96 84.8431 45.96C85.8031 45.96 86.4631 46.2 86.8231 46.68C87.1831 47.1 87.3631 47.73 87.3631 48.57Z" fill="white"/>
<path d="M108.505 42.09C108.325 42.27 108.115 42.27 107.875 42.09C107.695 41.91 107.545 41.67 107.425 41.37C107.305 41.01 107.245 40.65 107.245 40.29C107.245 39.87 107.335 39.51 107.515 39.21C108.175 38.37 109.135 37.32 110.395 36.06C111.715 34.74 113.065 33.63 114.445 32.73C114.565 32.67 114.715 32.73 114.895 32.91C115.075 33.03 115.135 33.15 115.075 33.27C113.815 34.41 112.615 35.79 111.475 37.41C110.335 38.97 109.345 40.53 108.505 42.09ZM98.8749 52.26C98.6949 52.38 98.5449 52.35 98.4249 52.17C98.3049 51.93 98.2749 51.72 98.3349 51.54C100.555 49.74 103.645 47.88 107.605 45.96C108.085 45.96 108.325 46.23 108.325 46.77C107.545 48.15 106.765 49.65 105.985 51.27C105.265 52.89 104.605 54.51 104.005 56.13C103.465 57.69 103.015 59.22 102.655 60.72C102.295 62.16 102.115 63.36 102.115 64.32C102.115 65.52 102.535 66.12 103.375 66.12C104.035 66.12 104.665 65.85 105.265 65.31C105.925 64.71 106.675 63.96 107.515 63.06C107.635 62.94 107.785 62.97 107.965 63.15C108.145 63.27 108.175 63.48 108.055 63.78C106.735 65.34 105.415 66.6 104.095 67.56C102.835 68.52 101.605 69 100.405 69C98.3049 69 97.2549 68.01 97.2549 66.03C97.2549 64.95 97.4049 63.69 97.7049 62.25C98.0649 60.75 98.5149 59.25 99.0549 57.75C99.6549 56.19 100.285 54.69 100.945 53.25C101.665 51.75 102.385 50.46 103.105 49.38C102.445 49.74 101.695 50.19 100.855 50.73C100.075 51.27 99.4149 51.78 98.8749 52.26Z" fill="white"/>
<path d="M123.087 45.96C124.407 45.96 125.457 46.14 126.237 46.5C127.077 46.86 127.497 47.31 127.497 47.85C127.497 48.51 127.317 49.26 126.957 50.1C126.657 50.94 126.357 51.63 126.057 52.17C125.937 52.29 125.787 52.32 125.607 52.26C125.427 52.14 125.337 51.96 125.337 51.72C125.517 51.3 125.607 50.7 125.607 49.92C125.607 49.08 125.367 48.39 124.887 47.85C124.467 47.31 123.867 47.04 123.087 47.04C122.067 47.04 121.227 47.37 120.567 48.03C119.967 48.63 119.667 49.5 119.667 50.64C119.667 51.6 119.907 52.53 120.387 53.43C120.927 54.27 121.497 55.14 122.097 56.04C122.757 56.88 123.357 57.81 123.897 58.83C124.437 59.79 124.707 60.9 124.707 62.16C124.707 64.32 123.837 66 122.097 67.2C120.357 68.4 118.077 69 115.257 69C113.217 69 111.597 68.67 110.397 68.01C109.257 67.35 108.687 66.63 108.687 65.85C108.687 65.61 108.777 65.28 108.957 64.86C109.137 64.44 109.377 63.99 109.677 63.51C109.977 63.03 110.307 62.55 110.667 62.07C111.027 61.59 111.417 61.2 111.837 60.9C112.017 60.78 112.167 60.81 112.287 60.99C112.467 61.17 112.497 61.35 112.377 61.53C112.017 61.89 111.747 62.28 111.567 62.7C111.387 63.06 111.297 63.57 111.297 64.23C111.297 65.31 111.657 66.21 112.377 66.93C113.097 67.59 114.027 67.92 115.167 67.92C116.727 67.92 117.927 67.5 118.767 66.66C119.667 65.76 120.117 64.68 120.117 63.42C120.117 62.28 119.847 61.23 119.307 60.27C118.827 59.25 118.287 58.29 117.687 57.39C117.087 56.43 116.517 55.47 115.977 54.51C115.497 53.55 115.257 52.53 115.257 51.45C115.257 49.89 115.917 48.6 117.237 47.58C118.557 46.5 120.507 45.96 123.087 45.96Z" fill="white"/>
<path d="M229.61 7.70996C232.31 7.70996 233.66 9.02996 233.66 11.67C233.66 12.51 233.51 13.5 233.21 14.64C232.91 15.72 232.61 16.59 232.31 17.25C231.95 17.37 231.71 17.25 231.59 16.89C232.07 15.51 231.89 14.34 231.05 13.38C230.27 12.36 228.62 11.85 226.1 11.85C223.46 11.85 221.06 12.48 218.9 13.74C216.8 15 214.79 17.04 212.87 19.86C210.95 22.68 209.09 26.37 207.29 30.93C205.49 35.49 203.66 41.07 201.8 47.67C202.64 47.91 203.42 48.15 204.14 48.39C204.86 48.57 205.58 48.75 206.3 48.93C206.42 49.05 206.33 49.23 206.03 49.47C205.79 49.71 205.43 49.95 204.95 50.19C204.47 50.43 203.9 50.64 203.24 50.82C202.58 51 201.95 51.06 201.35 51C201.29 51 201.14 50.94 200.9 50.82C200.72 51.48 200.54 52.11 200.36 52.71C200.24 53.25 200.09 53.85 199.91 54.51C198.05 61.53 198.44 65.04 201.08 65.04C203.42 65.04 205.67 63.36 207.83 60C208.01 59.82 208.19 59.79 208.37 59.91C208.55 60.03 208.61 60.24 208.55 60.54C207.89 61.56 207.14 62.58 206.3 63.6C205.52 64.56 204.68 65.46 203.78 66.3C202.88 67.08 201.95 67.74 200.99 68.28C200.03 68.76 199.13 69 198.29 69C196.07 69 194.51 68.1 193.61 66.3C192.71 64.5 192.77 61.59 193.79 57.57C194.15 56.13 194.51 54.75 194.87 53.43C195.23 52.05 195.65 50.7 196.13 49.38C192.59 48.36 188.75 47.46 184.61 46.68C180.53 45.9 176.36 45.33 172.1 44.97C168.74 53.49 164.6 59.64 159.68 63.42C154.76 67.14 149.39 69 143.57 69C139.79 69 137 68.22 135.2 66.66C133.4 65.04 132.5 63.06 132.5 60.72C132.5 58.44 133.19 56.22 134.57 54.06C136.01 51.9 138.11 50.01 140.87 48.39C143.63 46.71 147.08 45.36 151.22 44.34C155.36 43.32 160.13 42.81 165.53 42.81H167.87C168.11 41.97 168.35 41.13 168.59 40.29C168.83 39.45 169.1 38.55 169.4 37.59C170.36 34.05 171.35 31.08 172.37 28.68C173.39 26.22 174.41 24.18 175.43 22.56C176.45 20.94 177.5 19.65 178.58 18.69C179.66 17.73 180.77 16.95 181.91 16.35C180.35 15.81 178.49 15.33 176.33 14.91C174.17 14.43 171.86 14.19 169.4 14.19C166.58 14.19 164.21 14.58 162.29 15.36C160.43 16.14 158.96 17.22 157.88 18.6C156.8 19.92 156.11 21.51 155.81 23.37C155.57 25.17 155.66 27.09 156.08 29.13C156.02 29.43 155.9 29.61 155.72 29.67C155.54 29.73 155.36 29.64 155.18 29.4C154.64 26.88 154.64 24.51 155.18 22.29C155.72 20.01 156.74 18.03 158.24 16.35C159.8 14.67 161.84 13.35 164.36 12.39C166.94 11.43 170 10.95 173.54 10.95C176.06 10.95 178.49 11.25 180.83 11.85C183.17 12.39 185.27 13.05 187.13 13.83C187.37 14.19 187.34 14.52 187.04 14.82C186.8 15.12 186.23 15.45 185.33 15.81C184.13 16.29 183.11 16.95 182.27 17.79C181.43 18.63 180.65 19.77 179.93 21.21C179.21 22.65 178.49 24.42 177.77 26.52C177.11 28.62 176.39 31.17 175.61 34.17C175.19 35.73 174.74 37.26 174.26 38.76C173.84 40.26 173.36 41.7 172.82 43.08C176.78 43.38 180.83 43.83 184.97 44.43C189.17 45.03 193.19 45.75 197.03 46.59C199.07 40.47 201.38 35.01 203.96 30.21C206.6 25.35 209.33 21.27 212.15 17.97C214.97 14.61 217.85 12.06 220.79 10.32C223.79 8.57996 226.73 7.70996 229.61 7.70996ZM146.09 66.84C148.73 66.84 151.07 66.48 153.11 65.76C155.15 64.98 156.98 63.75 158.6 62.07C160.28 60.33 161.81 58.05 163.19 55.23C164.57 52.35 165.95 48.81 167.33 44.61C166.49 44.55 165.65 44.52 164.81 44.52C163.97 44.52 163.13 44.52 162.29 44.52C157.79 44.52 153.92 44.91 150.68 45.69C147.5 46.41 144.89 47.43 142.85 48.75C140.87 50.01 139.4 51.51 138.44 53.25C137.48 54.99 137 56.88 137 58.92C137 61.5 137.78 63.48 139.34 64.86C140.96 66.18 143.21 66.84 146.09 66.84Z" fill="#D1C179"/>
<path d="M225.497 45.96C227.597 45.96 229.157 46.59 230.177 47.85C231.197 49.11 231.707 50.58 231.707 52.26C231.707 54.6 231.227 56.79 230.267 58.83C229.367 60.81 228.227 62.58 226.847 64.14C225.527 65.64 224.087 66.84 222.527 67.74C220.967 68.58 219.557 69 218.297 69C216.257 69 214.697 68.4 213.617 67.2C212.597 65.94 212.087 64.35 212.087 62.43C212.087 60.69 212.447 58.86 213.167 56.94C213.947 55.02 214.937 53.25 216.137 51.63C217.397 50.01 218.837 48.66 220.457 47.58C222.077 46.5 223.757 45.96 225.497 45.96ZM220.547 66.21C222.407 66.21 223.967 65.25 225.227 63.33C226.547 61.35 227.207 58.65 227.207 55.23C227.207 53.43 226.847 51.93 226.127 50.73C225.407 49.53 224.357 48.93 222.977 48.93C221.057 48.93 219.497 49.86 218.297 51.72C217.097 53.58 216.497 56.31 216.497 59.91C216.497 62.01 216.857 63.6 217.577 64.68C218.357 65.7 219.347 66.21 220.547 66.21Z" fill="#D1C179"/>
<path d="M252.57 46.4099C252.87 46.5299 252.99 46.7099 252.93 46.9499C252.87 47.1299 252.6 47.2799 252.12 47.3999C251.22 47.3999 250.17 47.4299 248.97 47.4899C247.83 47.5499 246.6 47.6399 245.28 47.7599C244.08 50.6999 243.09 53.5799 242.31 56.3999C241.53 59.1599 241.14 61.4099 241.14 63.1499C241.14 65.1899 241.92 66.2099 243.48 66.2099C245.04 66.2099 246.78 64.8599 248.7 62.1599C248.88 62.0399 249.03 62.0399 249.15 62.1599C249.33 62.2799 249.39 62.4899 249.33 62.7899C248.31 64.4699 247.02 65.9399 245.46 67.1999C243.9 68.3999 242.37 68.9999 240.87 68.9999C239.31 68.9999 238.14 68.6399 237.36 67.9199C236.64 67.1399 236.28 66.0899 236.28 64.7699C236.28 63.0299 236.7 60.6299 237.54 57.5699C238.38 54.5099 239.46 51.3899 240.78 48.2099C239.22 48.3899 237.78 48.6299 236.46 48.9299C236.16 48.8699 236.07 48.7199 236.19 48.4799C236.37 48.2399 236.64 47.9999 237 47.7599C237.42 47.4599 237.9 47.2199 238.44 47.0399C238.98 46.7999 239.49 46.6799 239.97 46.6799C240.21 46.6799 240.45 46.6799 240.69 46.6799C240.93 46.6799 241.17 46.6499 241.41 46.5899C242.19 44.8499 243 43.1699 243.84 41.5499C244.68 39.9299 245.52 38.4599 246.36 37.1399C246.72 36.7199 247.2 36.3599 247.8 36.0599C248.46 35.6999 249.09 35.4299 249.69 35.2499C250.29 35.0699 250.77 34.9799 251.13 34.9799C251.55 34.9199 251.73 35.0099 251.67 35.2499C250.65 36.8099 249.63 38.5499 248.61 40.4699C247.65 42.3899 246.72 44.3999 245.82 46.4999C246.96 46.4399 248.1 46.4099 249.24 46.4099C250.44 46.4099 251.55 46.4099 252.57 46.4099Z" fill="#D1C179"/>
<path d="M270.707 50.46C270.707 53.88 266.177 56.22 257.117 57.48C257.057 58.08 256.997 58.68 256.937 59.28C256.937 59.88 256.937 60.51 256.937 61.17C256.937 62.73 257.297 63.93 258.017 64.77C258.737 65.61 259.877 66.03 261.437 66.03C262.577 66.03 263.747 65.7 264.947 65.04C266.147 64.38 267.107 63.54 267.827 62.52C268.067 62.4 268.247 62.46 268.367 62.7C268.487 62.88 268.517 63.09 268.457 63.33C267.257 64.89 265.727 66.24 263.867 67.38C262.067 68.46 260.117 69 258.017 69C255.917 69 254.387 68.49 253.427 67.47C252.527 66.39 252.077 64.89 252.077 62.97C252.077 61.11 252.467 59.19 253.247 57.21C254.027 55.17 255.017 53.31 256.217 51.63C257.477 49.95 258.887 48.6 260.447 47.58C262.067 46.5 263.687 45.96 265.307 45.96C266.927 45.96 268.217 46.44 269.177 47.4C270.197 48.3 270.707 49.32 270.707 50.46ZM262.877 48.3C261.497 48.3 260.297 48.96 259.277 50.28C258.317 51.54 257.657 53.52 257.297 56.22C260.177 55.92 262.307 55.38 263.687 54.6C265.067 53.76 265.757 52.74 265.757 51.54C265.757 50.64 265.487 49.89 264.947 49.29C264.407 48.63 263.717 48.3 262.877 48.3Z" fill="#D1C179"/>
<path d="M311.954 2.12988C312.854 2.12988 313.574 2.36988 314.114 2.84988C314.714 3.26988 315.104 3.86988 315.284 4.64988C315.524 5.36988 315.554 6.20988 315.374 7.16988C315.254 8.12988 314.924 9.08988 314.384 10.0499C314.264 10.1699 314.114 10.1699 313.934 10.0499C313.754 9.92988 313.634 9.77988 313.574 9.59988C313.694 8.87988 313.424 8.27988 312.764 7.79988C312.164 7.31988 311.204 7.07988 309.884 7.07988C307.424 7.07988 304.934 8.00988 302.414 9.86989C299.954 11.6699 297.554 14.0699 295.214 17.0699C292.874 20.0699 290.684 23.5199 288.644 27.4199C286.604 31.3199 284.834 35.3399 283.334 39.4799C281.834 43.6199 280.634 47.7299 279.734 51.8099C278.894 55.8899 278.474 59.6099 278.474 62.9699C278.474 64.7699 278.984 65.6699 280.004 65.6699C280.724 65.6699 281.414 65.3699 282.074 64.7699C282.794 64.1699 283.604 63.2699 284.504 62.0699C284.684 61.9499 284.834 61.9799 284.954 62.1599C285.134 62.2799 285.194 62.4599 285.134 62.6999C283.934 64.4999 282.524 65.9999 280.904 67.1999C279.284 68.3999 277.814 68.9999 276.494 68.9999C275.354 68.9999 274.544 68.6699 274.064 68.0099C273.644 67.3499 273.434 66.5099 273.434 65.4899C273.434 62.6699 274.034 59.1599 275.234 54.9599C276.434 50.6999 278.024 46.2299 280.004 41.5499C282.044 36.8099 284.384 32.0999 287.024 27.4199C289.664 22.7399 292.394 18.5399 295.214 14.8199C298.094 11.0399 300.974 7.97988 303.854 5.63988C306.734 3.29988 309.434 2.12988 311.954 2.12988Z" fill="#D1C179"/>
</g>
<defs>
<clipPath id="clip0_420_2">
<rect width="316" height="69" fill="white"/>
</clipPath>
</defs>
</svg>
